<?xml version="1.0" standalone="no"?>
<!DOCTYPE svg PUBLIC "-//W3C//DTD SVG 20010904//EN"
 "http://www.w3.org/TR/2001/REC-SVG-20010904/DTD/svg10.dtd">
<svg version="1.0" xmlns="http://www.w3.org/2000/svg"
 width="512.000000pt" height="512.000000pt" viewBox="0 0 512.000000 512.000000"
 preserveAspectRatio="xMidYMid meet">
<metadata>
Created by potrace 1.14, written by Peter Selinger 2001-2017
</metadata>
<g transform="translate(0.000000,512.000000) scale(0.100000,-0.100000)"
fill="#000000" stroke="none">
<path d="M1280 4873 c-45 -7 -144 -45 -180 -69 -146 -99 -229 -266 -217 -434
3 -41 13 -95 22 -119 8 -24 14 -45 13 -46 -2 -1 -32 -17 -68 -36 -94 -50 -181
-142 -229 -242 -49 -103 -61 -159 -57 -272 4 -100 21 -158 72 -254 19 -35 34
-64 32 -65 -2 -2 -24 -10 -50 -20 -106 -39 -210 -124 -279 -230 -70 -107 -94
-192 -94 -336 1 -275 194 -513 465 -575 139 -31 312 -4 433 69 l57 35 0 -140
0 -139 -452 0 c-431 0 -454 -1 -478 -20 l-25 -19 -3 -823 c-2 -612 1 -830 9
-851 7 -16 23 -33 36 -38 15 -5 940 -9 2284 -9 2236 0 2259 0 2279 20 11 11
22 30 25 42 3 13 4 391 3 840 -3 769 -4 818 -21 835 -16 17 -52 18 -477 21
l-460 3 0 134 c0 74 2 135 5 135 2 0 33 -15 67 -34 105 -56 160 -70 283 -71
87 0 125 5 180 22 189 60 339 209 398 398 30 97 30 272 -2 359 -34 94 -85 177
-148 239 -58 57 -161 127 -188 127 -8 0 -17 5 -20 10 -3 6 -15 10 -26 10 -12
0 -19 3 -17 8 2 4 22 45 45 92 50 101 63 166 58 280 -7 139 -56 257 -150 354
-52 55 -145 120 -180 128 -23 4 -23 12 -2 88 14 50 16 186 4 230 -2 8 -8 28
-12 45 -13 47 -70 136 -117 184 -115 115 -298 166 -454 125 -174 -45 -316
-192 -353 -364 -14 -62 -6 -196 13 -249 9 -24 15 -45 14 -46 -2 -1 -32 -17
-67 -36 -188 -99 -306 -319 -287 -539 6 -80 26 -144 72 -228 38 -71 39 -72 21
-72 -23 0 -142 -63 -187 -99 -24 -20 -60 -53 -78 -73 l-34 -38 -197 0 -197 0
-49 52 c-59 61 -150 122 -217 146 -47 16 -60 34 -37 48 21 13 76 148 89 217
14 76 8 185 -15 260 -40 132 -147 264 -266 326 -35 19 -65 35 -67 36 -1 1 5
22 14 46 19 53 26 176 13 244 -5 28 -24 82 -43 120 -91 184 -300 291 -506 258z
m2320 -3196 l0 -483 -77 0 c-68 0 -84 -4 -124 -29 -47 -29 -109 -109 -109
-142 0 -10 -4 -24 -9 -31 -7 -11 -10 -11 -22 0 -32 31 -74 43 -143 43 -78 -1
-111 -13 -164 -64 l-33 -32 -33 31 c-42 40 -76 57 -129 65 l-42 7 0 71 c-1 84
-19 129 -73 182 -73 70 -197 84 -281 31 -22 -15 -41 -25 -42 -24 0 2 -2 12 -4
23 -21 107 -126 195 -234 195 -39 0 -103 -20 -132 -41 -25 -17 -26 -17 -85 13
-51 26 -67 29 -119 25 -100 -7 -194 -84 -216 -176 -4 -14 -7 164 -8 397 l-1
422 1040 0 1040 0 0 -483z m-3040 -267 l0 -431 -25 -27 c-35 -37 -58 -121 -51
-183 6 -46 5 -49 -16 -49 -13 0 -33 -3 -45 -6 l-23 -6 0 566 0 566 80 0 80 0
0 -430z m320 -1 l0 -430 -29 20 c-16 12 -52 26 -80 33 l-51 11 0 399 0 398 80
0 80 0 0 -431z m320 156 c0 -151 -4 -275 -8 -275 -4 0 -21 -20 -36 -45 -19
-30 -36 -45 -50 -45 -12 0 -31 -3 -43 -6 l-23 -6 0 326 0 326 80 0 80 0 0
-275z m2880 -47 l0 -323 -80 0 -80 0 0 323 0 322 80 0 80 0 0 -322z m320 -76
l0 -397 -50 -12 c-28 -7 -64 -22 -80 -33 l-30 -21 0 430 0 431 80 0 80 0 0
-398z m320 -168 l0 -566 -31 6 c-17 3 -37 6 -43 6 -7 0 -11 25 -11 73 -1 75
-17 124 -55 165 -19 20 -20 39 -20 452 l0 430 80 0 80 0 0 -566z"/>
</g>
</svg>
